<svg width="37" height="37" viewBox="0 0 37 37" fill="none" xmlns="http://www.w3.org/2000/svg">
<g clip-path="url(#clip0_540_26)">
<path d="M29.3726 9.19737C29.3723 8.98568 29.3122 8.77837 29.1994 8.59927C29.0865 8.42016 28.9255 8.27653 28.7346 8.18488C28.5438 8.09323 28.331 8.05728 28.1207 8.08116C27.9103 8.10504 27.711 8.18778 27.5456 8.31987L22.2288 12.5724H16.9976C16.6992 12.5724 16.413 12.6909 16.2021 12.9019C15.9911 13.1129 15.8726 13.399 15.8726 13.6974V22.6974C15.8726 22.9957 15.9911 23.2819 16.2021 23.4929C16.413 23.7038 16.6992 23.8224 16.9976 23.8224H22.2288L27.5456 28.0749C27.711 28.207 27.9103 28.2897 28.1207 28.3136C28.331 28.3375 28.5438 28.3015 28.7346 28.2099C28.9255 28.1182 29.0865 27.9746 29.1994 27.7955C29.3122 27.6164 29.3723 27.4091 29.3726 27.1974V9.19737ZM23.3246 14.5749L27.1226 11.5374V24.8574L23.3246 21.8199C23.1254 21.6601 22.8779 21.5728 22.6226 21.5724H18.1226V14.8224H22.6226C22.8779 14.8219 23.1254 14.7346 23.3246 14.5749ZM36.1788 18.1974C36.1805 19.5273 35.9194 20.8444 35.4105 22.0731C34.9016 23.3017 34.1549 24.4177 33.2133 25.3569L31.6226 23.7661C32.3549 23.0356 32.9357 22.1676 33.3314 21.2119C33.7272 20.2562 33.9302 19.2318 33.9288 18.1974C33.9301 17.163 33.727 16.1386 33.3313 15.1829C32.9355 14.2273 32.3548 13.3592 31.6226 12.6286L33.2133 11.0379C34.1549 11.977 34.9016 13.093 35.4105 14.3217C35.9194 15.5504 36.1805 16.8675 36.1788 18.1974Z" fill="white" fill-opacity="0.6"/>
</g>
<defs>
<clipPath id="clip0_540_26">
<rect width="36" height="36" fill="white" transform="translate(0.444092 0.19751)"/>
</clipPath>
</defs>
</svg>
